<svg width="871" height="650" viewBox="0 0 871 650" fill="none" xmlns="http://www.w3.org/2000/svg">
<g clip-path="url(#clip0_326_1101)">
<path d="M864.963 40.344H310.123C308.905 40.3171 307.938 39.3074 307.965 38.0889C307.991 36.9082 308.942 35.9572 310.123 35.9312H864.963C866.181 35.9581 867.147 36.9677 867.12 38.1863C867.094 39.367 866.143 40.318 864.963 40.344Z" fill="#E6E6E6"/>
<path d="M407.836 267.083H631.686C632.255 267.083 632.717 267.545 632.717 268.114V398.275C632.717 398.844 632.255 399.305 631.686 399.305H407.836V267.083Z" fill="#E6E6E6"/>
<path d="M631.421 400.008L407.539 268.082L408.129 266.085L632.011 398.012C632.562 398.174 632.877 398.753 632.715 399.305C632.552 399.856 631.973 400.171 631.421 400.008Z" fill="white"/>
<path d="M408.129 400.303L407.539 398.306L631.421 266.38C631.973 266.217 632.552 266.532 632.715 267.083C632.877 267.635 632.563 268.214 632.011 268.377L408.129 400.303Z" fill="white"/>
<path d="M606.263 136.875H434.038C431.346 136.875 429.164 139.057 429.164 141.749V141.749C429.164 144.441 431.346 146.623 434.038 146.623H606.263C608.955 146.623 611.138 144.441 611.138 141.749C611.138 139.057 608.955 136.875 606.263 136.875Z" fill="#E6E6E6"/>
<path d="M629.416 167.303H410.886C408.194 167.303 406.012 169.485 406.012 172.177V172.177C406.012 174.869 408.194 177.052 410.886 177.052H629.416C632.108 177.052 634.29 174.869 634.29 172.177C634.29 169.485 632.108 167.303 629.416 167.303Z" fill="#E6E6E6"/>
<path d="M629.416 197.732H410.886C408.194 197.732 406.012 199.914 406.012 202.606C406.012 205.298 408.194 207.48 410.886 207.48H629.416C632.108 207.48 634.29 205.298 634.29 202.606C634.29 199.914 632.108 197.732 629.416 197.732Z" fill="#2795C6"/>
<path d="M836.642 300.452C836.625 338.081 812.845 371.596 777.334 384.04C776.58 384.311 775.826 384.557 775.063 384.795C728.487 399.685 678.658 373.998 663.768 327.421C648.878 280.844 674.565 231.015 721.141 216.125C767.718 201.235 817.547 226.922 832.437 273.499C835.223 282.212 836.641 291.304 836.642 300.452Z" fill="#E6E6E6"/>
<path d="M629.376 209.436C629.02 213.54 632.058 217.155 636.162 217.512C636.599 217.55 637.039 217.549 637.477 217.509L648.38 241.669L655.741 230.028L644.259 208.87C643.615 204.779 639.776 201.984 635.685 202.628C632.262 203.167 629.654 205.981 629.376 209.436Z" fill="#F39C12"/>
<path d="M736.823 300.419C736.664 299.705 736.462 299.001 736.216 298.312C734.654 293.872 731.471 290.185 727.306 287.992C727.208 287.934 727.101 287.877 727.003 287.828L677.195 262.555L672.777 253.94L654.923 219.158L650.546 220.462L640.201 223.536L639.963 223.601L657.112 281.311L661.047 284.327L705.616 318.412L707.067 319.527C714.471 325.179 724.895 324.565 731.585 318.084C732.252 317.444 732.869 316.754 733.429 316.018C736.828 311.584 738.072 305.865 736.823 300.419Z" fill="#2795C6"/>
<path d="M764.513 363.802L764.25 354.293L763.496 326.717C766.226 309.068 768.16 307.109 754.996 295.042C753.978 294.824 753.1 294.187 752.577 293.288C751.38 290.845 754.258 286.697 751.774 280.312L732.174 281.435L727.305 287.992L707.713 314.388C706.945 315.693 706.245 317.036 705.615 318.413C697.229 336.628 708.598 346.309 709.484 347.973L714.91 365.064L717.902 381.639L718.87 383.943L721.599 384.943C739.013 390.381 757.679 390.33 775.063 384.795C772.137 377.516 768.608 370.493 764.513 363.802Z" fill="#2795C6"/>
<path d="M802.475 430.837C804.151 427.075 802.46 422.665 798.698 420.988C798.296 420.81 797.88 420.667 797.454 420.561L795.037 394.166L784.277 402.765L788.222 426.513C787.495 430.59 790.211 434.485 794.288 435.212C797.7 435.82 801.084 434.012 802.475 430.837Z" fill="#F39C12"/>
<path d="M764.989 301.411C762.146 297.11 757.656 294.172 752.578 293.287C751.49 293.09 750.388 292.992 749.282 292.992C745.599 292.993 741.998 294.079 738.929 296.115C737.956 296.758 737.047 297.494 736.216 298.312C728.766 305.527 728.576 317.416 735.791 324.865L735.798 324.872L764.251 354.292L774.621 365.014L777.334 384.04L781.506 413.313L786.064 413.51L796.852 413.985L797.098 413.994L798.893 372.974L799.729 353.85L764.989 301.411Z" fill="#2795C6"/>
<path d="M726.107 235.315C719.177 248.973 723.704 264.794 736.563 273.113C750.468 282.109 768.521 280.139 774.361 262.657C780.863 243.189 775.521 234.837 763.905 224.859C750.291 213.167 733.594 220.558 726.107 235.315Z" fill="#2F2E41"/>
<path d="M760.216 265.741C752.866 275.374 739.099 277.226 729.466 269.877C719.844 262.537 717.983 248.793 725.305 239.158L725.496 238.908C733.059 229.441 746.864 227.898 756.331 235.462C765.582 242.853 767.299 256.252 760.21 265.737L760.216 265.741Z" fill="#F39C12"/>
<path d="M719.393 233.103C722.958 236.496 727.304 238.959 732.047 240.274C732.998 239.174 734.125 238.24 735.382 237.51C734.78 238.762 734.368 240.097 734.158 241.47C736.274 245.86 744.913 249.015 753.17 252.243L764.107 232.941L749.631 224.739C737.999 216.697 724.305 220.129 719.393 233.103Z" fill="#2F2E41"/>
<path d="M772.356 224.883C774.501 224.093 776.901 224.443 778.73 225.814C780.493 227.154 781.918 228.887 782.891 230.875C784.662 234.092 785.934 237.559 786.664 241.158C787.289 244.271 787.183 248.035 784.39 249.659C782.059 251.015 778.726 250.162 776.584 248.352C774.599 246.454 773.093 244.111 772.19 241.517C771.145 239.035 770.156 236.46 768.299 234.398L770.229 235.299C769.619 233.447 769.334 231.504 769.389 229.554C769.478 227.581 770.608 225.803 772.356 224.883Z" fill="#2F2E41"/>
<path d="M747.317 227.413L762.847 236.213C771.592 241.168 774.665 252.275 769.709 261.02C762.527 273.693 746.884 278.827 733.589 272.874L747.78 260.346L728.528 270.155L724.418 267.825C745.065 264.071 749.048 247.875 747.317 227.413Z" fill="#2F2E41"/>
<path d="M776.656 242.879C779.269 245.922 783.362 247.105 787.053 248.689C800.281 254.492 809.791 266.451 812.466 280.645C813.486 286.34 813.353 292.235 814.965 297.787C816.568 303.339 820.536 308.786 826.231 309.749C830.085 310.407 833.948 308.919 837.573 307.45C839.567 306.649 841.56 305.844 843.554 305.037C841.474 299.819 839.398 294.601 837.325 289.383C840.657 294.307 844.532 298.841 848.877 302.9C856.022 300.019 863.173 297.138 870.33 294.257C852.721 294.324 855.726 277.23 851.786 260.079C849.621 250.654 831.182 244.272 827.566 235.305C821.92 221.247 805.946 214.428 791.887 220.075C785.83 222.509 780.838 227.023 777.81 232.806C774.195 234.247 774.09 239.875 776.656 242.879Z" fill="#2F2E41"/>
<path d="M265.128 408.002C261.828 403.824 262.541 397.762 266.719 394.463C267.123 394.143 267.553 393.857 268.003 393.606L262.975 345.826L275.849 341.186L281.406 397.978C283.641 402.802 281.542 408.524 276.718 410.758C272.682 412.628 267.89 411.488 265.128 408.002Z" fill="#F39C12"/>
<path d="M258.242 232.825C258.242 232.825 279.141 243.022 279.209 255.01C279.277 266.998 281.008 277.84 279.373 282.479C277.737 287.117 283.529 320.832 280.818 324.171C278.106 327.51 283.692 329.219 280.757 334.933C277.822 340.647 276.522 341.722 277.598 343.022C278.674 344.321 280.253 369.091 280.253 369.091L263.032 371.245L244.713 291.296L258.242 232.825Z" fill="#3F3D56"/>
<path d="M158.857 412.855C162.774 409.249 163.026 403.152 159.421 399.235C159.072 398.855 158.692 398.505 158.287 398.186L170.786 351.796L158.805 345.184L144.362 400.39C141.395 404.801 142.566 410.782 146.977 413.749C150.668 416.232 155.579 415.862 158.857 412.855Z" fill="#F39C12"/>
<path d="M193.274 240.956C193.274 240.956 171.029 247.73 169.072 259.557C167.114 271.384 163.695 281.818 164.579 286.656C165.463 291.495 154.428 323.875 156.578 327.599C158.729 331.324 152.944 332.131 154.941 338.236C156.939 344.341 158.053 345.608 156.786 346.722C155.518 347.836 150.053 372.047 150.053 372.047L166.719 376.889L197.415 300.828L193.274 240.956Z" fill="#3F3D56"/>
<path d="M278.703 620.399L293.541 620.398L300.6 563.167L278.701 563.168L278.703 620.399Z" fill="#F39C12"/>
<path d="M298.479 621.735V611.676L294.578 611.915L278.699 612.855L275.024 613.081L272.215 646.77L272.064 648.576H282.6L282.939 646.782L284.469 638.63L288.42 646.782L289.285 648.576H317.217C320.676 648.554 323.473 645.752 323.488 642.292C324.667 636.786 301.439 624.883 298.479 621.735Z" fill="#2F2E41"/>
<path d="M104.871 604.249L117.777 611.571L152.159 565.277L133.113 554.472L104.871 604.249Z" fill="#F39C12"/>
<path d="M121.42 615.163L126.374 606.421L122.887 604.703L108.601 597.692L105.29 596.061L89.0227 619.879L85.1973 625.473L89.5244 627.931L94.3532 630.678L100.9 622.952L100.173 633.976L122.987 646.933H123L124.467 647.76C127.484 649.465 131.312 648.404 133.021 645.39C136.759 641.176 122.436 619.377 121.42 615.163Z" fill="#2F2E41"/>
<path d="M205.072 339.463C172.186 340.644 160.629 474.725 170.672 477.157L123.807 564.497L190.512 594.398L234.372 442.106L241.682 498.15L231.935 587.088L275.053 597.515L304.876 595.385C297.127 489.372 277.778 377.561 261.743 334.311L205.072 339.463Z" fill="#2F2E41"/>
<path d="M189.974 348.864L189.758 349.678C210.778 361.372 225.131 358.87 248.109 351.792L264.883 348.266C268.544 343.492 265.56 338.822 261.504 334.275L271.56 251.565C271.492 240.849 262.75 232.217 252.035 232.285C251.594 232.288 251.154 232.306 250.715 232.338L235.61 221.148L214.106 221.89L199.722 237.779L191.128 240.849L184.452 243.229C183.102 244.445 181.628 245.847 180.217 247.392L190.778 310.245L195.271 329.039C189.249 335.906 185.931 342.608 189.974 348.864Z" fill="#3F3D56"/>
<path d="M67.9787 638.195C52.3311 636.332 38.3605 627.506 29.9584 614.174C24.5635 605.425 21.7797 595.035 19.0876 584.987C18.3037 582.063 17.4937 579.039 16.6359 576.124C14.6516 569.607 16.8315 562.539 22.1415 558.271C27.2748 553.969 34.5097 553.222 40.4136 556.386L41.0435 556.72L42.1473 581.529C43.7829 578.206 47.3722 570.697 50.2158 563.2L50.4543 562.572L50.9991 562.966C56.716 567.073 61.893 571.883 66.408 577.284C82.5437 596.9 89.2338 622.621 84.7012 647.613L84.5639 648.349L67.9787 638.195Z" fill="#F2F2F2"/>
<path d="M5.53067e-06 648.168C-0.00200371 648.843 0.543695 649.392 1.21886 649.394H869.103C869.78 649.394 870.329 648.845 870.329 648.168C870.329 647.49 869.78 646.941 869.103 646.941H1.22617C0.550969 646.939 0.00201477 647.485 1.58344e-05 648.16L5.53067e-06 648.168Z" fill="#CCCCCC"/>
<path d="M255.44 207.039L255.461 207.033C257.803 206.414 259.199 204.013 258.579 201.671L252.332 178.003C251.217 173.762 249.26 169.788 246.578 166.318C241.334 159.549 233.68 155.065 225.211 153.801C220.84 153.153 216.383 153.397 212.109 154.518C194.623 159.105 189.739 164.888 188.753 194.483C187.766 224.079 195.01 218.187 195.01 218.187C195.16 218.758 195.423 219.292 195.784 219.759C196.49 220.669 197.521 221.27 198.66 221.438C199.245 221.524 199.84 221.491 200.412 221.342C222.248 219.094 244.362 217.047 255.443 207.038L255.44 207.039Z" fill="#2F2E41"/>
<path d="M204.098 182.052C200.894 194.987 208.782 208.071 221.717 211.276C227.917 212.811 234.472 211.827 239.947 208.537C245.42 205.272 249.358 199.952 250.884 193.764C254.077 180.827 246.178 167.749 233.241 164.555C227.057 163.029 220.52 164.009 215.056 167.283C209.576 170.543 205.629 175.862 204.098 182.052Z" fill="#F39C12"/>
<path d="M260.345 177.948C259.463 174.594 257.915 171.451 255.794 168.707C252.781 161.195 248.055 155.124 238.898 158.81C235.463 158.302 231.962 158.491 228.601 159.364L223.858 160.591C223.805 160.605 223.751 160.619 223.698 160.633C209.905 164.283 201.683 178.423 205.333 192.216L205.458 192.69L215.49 190.085L216.387 179.637L219.595 189.021L224.777 187.678L225.229 182.406L226.847 187.138C236.673 190.955 248.06 187.168 260.466 178.424L260.345 177.948Z" fill="#2F2E41"/>
<path d="M237.331 211.021C237.69 211.745 237.839 212.555 237.76 213.359C237.723 213.77 237.628 214.173 237.478 214.558C237.35 214.885 237.183 215.197 236.982 215.486C236.384 216.338 235.503 216.95 234.495 217.212C234.432 217.228 234.369 217.243 234.305 217.256C234.242 217.27 234.178 217.282 234.114 217.293C234.049 217.304 233.984 217.314 233.919 217.322C233.854 217.329 233.788 217.336 233.722 217.342L229.994 217.634L222.333 208.461L224.863 218.048L207.924 219.405L197.186 178.723L224.329 171.697L223.864 172.653C222.329 175.851 221.707 179.412 222.065 182.942C222.445 186.513 223.434 189.992 224.989 193.229C226.537 196.511 228.396 199.637 230.541 202.564C232.426 205.161 234.459 207.647 236.631 210.01C236.91 210.313 237.146 210.653 237.331 211.021Z" fill="#2F2E41"/>
<path d="M371.717 17.8149C376.53 17.8149 380.431 13.8268 380.431 8.9072C380.431 3.98762 376.53 -0.000488281 371.717 -0.000488281C366.905 -0.000488281 363.004 3.98762 363.004 8.9072C363.004 13.8268 366.905 17.8149 371.717 17.8149Z" fill="#3F3D56"/>
<path d="M401.817 17.8149C406.629 17.8149 410.531 13.8268 410.531 8.9072C410.531 3.98762 406.629 -0.000488281 401.817 -0.000488281C397.005 -0.000488281 393.104 3.98762 393.104 8.9072C393.104 13.8268 397.005 17.8149 401.817 17.8149Z" fill="#3F3D56"/>
<path d="M431.919 17.8149C436.731 17.8149 440.632 13.8268 440.632 8.9072C440.632 3.98762 436.731 -0.000488281 431.919 -0.000488281C427.106 -0.000488281 423.205 3.98762 423.205 8.9072C423.205 13.8268 427.106 17.8149 431.919 17.8149Z" fill="#3F3D56"/>
<path d="M466.242 15.9473C465.974 15.9473 465.707 15.8437 465.505 15.6374L459.626 9.62722C459.234 9.22674 459.234 8.58677 459.626 8.1863L465.505 2.1766C465.904 1.77008 466.557 1.76354 466.962 2.1605C467.369 2.55847 467.376 3.21101 466.978 3.61752L461.804 8.90676L466.978 14.1965C467.376 14.603 467.369 15.2556 466.962 15.6535C466.762 15.8497 466.502 15.9473 466.242 15.9473Z" fill="#3F3D56"/>
<path d="M476.12 15.9476C475.86 15.9476 475.6 15.85 475.4 15.6538C474.993 15.2558 474.986 14.6038 475.384 14.1968L480.558 8.90702L475.384 3.61779C474.986 3.21127 474.993 2.55873 475.4 2.16077C475.806 1.7623 476.459 1.76986 476.857 2.17687L482.736 8.18656C483.128 8.58704 483.128 9.22701 482.736 9.62749L476.857 15.6377C476.655 15.844 476.388 15.9476 476.12 15.9476Z" fill="#3F3D56"/>
<path d="M783.701 1.03125H772.768C771.521 1.03125 770.512 2.041 770.512 3.28778V14.2304C770.512 15.4772 771.521 16.4869 772.768 16.4869H783.701C784.947 16.4869 785.967 15.4772 785.967 14.2304V3.28778C785.967 2.041 784.947 1.03125 783.701 1.03125Z" fill="#3F3D56"/>
<path d="M756.911 1.03125H745.979C744.732 1.03125 743.723 2.041 743.723 3.28778V14.2304C743.723 15.4772 744.732 16.4869 745.979 16.4869H756.911C758.158 16.4869 759.178 15.4772 759.178 14.2304V3.28778C759.178 2.041 758.158 1.03125 756.911 1.03125Z" fill="#3F3D56"/>
<path d="M808.945 1.5459H798.012C796.766 1.5459 795.756 2.55565 795.756 3.80243V14.745C795.756 15.9918 796.766 17.0016 798.012 17.0016H808.945C810.191 17.0016 811.212 15.9918 811.212 14.745V3.80243C811.212 2.55565 810.191 1.5459 808.945 1.5459Z" fill="#3F3D56"/>
<path d="M644.167 5.70898H556.78C555.255 5.70898 554.029 6.94545 554.029 8.46013C554.029 9.97482 555.255 11.2112 556.78 11.2112H644.167C645.681 11.2112 646.918 9.97476 646.918 8.46013C646.918 6.94551 645.681 5.70898 644.167 5.70898Z" fill="#3F3D56"/>
</g>
<defs>
<clipPath id="clip0_326_1101">
<rect width="870.329" height="649.394" fill="white"/>
</clipPath>
</defs>
</svg>
