<svg width="889" height="474" viewBox="0 0 889 474" fill="none" xmlns="http://www.w3.org/2000/svg">
<g clip-path="url(#clip0_326_1149)">
<path d="M41.5391 471.942L41.7232 470.971C41.7641 470.757 45.9565 449.484 61.6721 437.139C77.3883 424.794 99.0493 425.76 99.2658 425.772L100.254 425.823L100.069 426.794C100.028 427.007 95.836 448.28 80.1205 460.625C64.4042 472.97 42.7432 472.004 42.5267 471.993L41.5391 471.942ZM62.7378 438.496C49.4501 448.933 44.6657 465.999 43.6418 470.29C48.0546 470.309 65.78 469.696 79.0547 459.268C92.3279 448.842 97.123 431.768 98.1507 427.474C93.7353 427.456 76.0118 428.069 62.7378 438.496Z" fill="#F1F1F1"/>
<path d="M68.9873 443.23C61.788 461.774 42.8356 471.715 42.8356 471.715C42.8356 471.715 35.5558 451.59 42.7551 433.046C49.9545 414.502 68.9068 404.561 68.9068 404.561C68.9068 404.561 76.1867 424.686 68.9873 443.23Z" fill="#F1F1F1"/>
<path d="M862.033 471.993C861.817 472.004 840.156 472.97 824.44 460.625C808.724 448.28 804.532 427.007 804.491 426.794L804.307 425.823L805.294 425.772C805.511 425.76 827.172 424.794 842.888 437.139C858.604 449.484 862.796 470.757 862.837 470.971L863.021 471.942L862.033 471.993ZM806.409 427.474C807.437 431.768 812.232 448.842 825.505 459.268C838.78 469.696 856.505 470.309 860.918 470.29C859.894 465.999 855.11 448.933 841.822 438.496C828.548 428.069 810.825 427.456 806.409 427.474Z" fill="#F1F1F1"/>
<path d="M835.572 443.23C842.771 461.774 861.723 471.715 861.723 471.715C861.723 471.715 869.003 451.59 861.804 433.046C854.604 414.502 835.652 404.561 835.652 404.561C835.652 404.561 828.372 424.686 835.572 443.23Z" fill="#F1F1F1"/>
<path d="M509.017 467.508L496.43 462.208L487.795 399.107H372.806L363.447 461.95L352.185 467.581C351.646 467.85 351.214 468.294 350.959 468.839C350.704 469.385 350.64 470.001 350.779 470.587C350.917 471.173 351.249 471.696 351.722 472.07C352.194 472.443 352.779 472.647 353.381 472.647H507.98C508.597 472.647 509.195 472.433 509.673 472.042C510.151 471.651 510.479 471.107 510.601 470.502C510.723 469.897 510.632 469.268 510.344 468.722C510.055 468.176 509.586 467.747 509.017 467.508Z" fill="#E6E6E6"/>
<path d="M713.36 407.503H148.504C145.54 407.497 142.7 406.315 140.607 404.217C138.514 402.119 137.338 399.276 137.338 396.312V316.66H724.526V396.312C724.526 399.276 723.35 402.119 721.257 404.217C719.164 406.315 716.324 407.497 713.36 407.503Z" fill="#CCCCCC"/>
<path d="M725.116 354.305H136.822V13.4903C136.826 9.91363 138.249 6.48465 140.778 3.95561C143.307 1.42657 146.736 0.00400894 150.313 0H711.626C715.202 0.0040066 718.631 1.42656 721.16 3.9556C723.69 6.48464 725.112 9.91362 725.116 13.4903V354.305Z" fill="#3F3D56"/>
<path d="M689.98 329.569H171.959C169.202 329.566 166.558 328.469 164.608 326.519C162.658 324.57 161.562 321.926 161.559 319.169V35.1366C161.562 32.3791 162.658 29.7355 164.608 27.7857C166.558 25.8358 169.202 24.739 171.959 24.7358H689.98C692.738 24.739 695.381 25.8358 697.331 27.7857C699.281 29.7355 700.378 32.3791 700.381 35.1366V319.169C700.378 321.926 699.281 324.57 697.331 326.519C695.381 328.469 692.738 329.566 689.98 329.569Z" fill="white"/>
<path d="M886.785 473.305H1.36925C1.07107 473.312 0.779175 473.219 0.539039 473.042C0.298904 472.865 0.124015 472.614 0.0416245 472.327C-0.00981286 472.132 -0.0157998 471.928 0.0241187 471.73C0.0640372 471.532 0.148794 471.347 0.271878 471.187C0.394963 471.027 0.553087 470.897 0.734084 470.808C0.915081 470.719 1.11413 470.672 1.3159 470.672H886.677C886.992 470.661 887.301 470.757 887.554 470.944C887.807 471.131 887.989 471.398 888.071 471.702C888.114 471.894 888.113 472.094 888.068 472.286C888.023 472.478 887.936 472.658 887.812 472.812C887.689 472.966 887.533 473.09 887.355 473.175C887.177 473.261 886.982 473.305 886.785 473.305Z" fill="#CCCCCC"/>
<path d="M274.643 132.153H189.412V140.157H274.643V132.153Z" fill="#E5E5E5"/>
<path d="M274.643 151.564H189.412V159.568H274.643V151.564Z" fill="#E5E5E5"/>
<path d="M274.643 171.404H189.412V179.408H274.643V171.404Z" fill="#E5E5E5"/>
<path d="M274.643 191.244H189.412V199.248H274.643V191.244Z" fill="#E5E5E5"/>
<path d="M254.453 216.455H209.598V223.401H254.453V216.455Z" fill="#2795C6"/>
<path d="M407.264 181.797H406.449V184.242H407.264V181.797Z" fill="#E5E5E5"/>
<path d="M407.264 236.335H406.449V231.125H407.264V236.335ZM407.264 225.916H406.449V220.707H407.264V225.916ZM407.264 215.497H406.449V210.288H407.264V215.497ZM407.264 205.079H406.449V199.869H407.264V205.079ZM407.264 194.66H406.449V189.451H407.264V194.66Z" fill="#E5E5E5"/>
<path d="M407.264 241.543H406.449V243.988H407.264V241.543Z" fill="#E5E5E5"/>
<path d="M496.506 181.797H495.691V184.242H496.506V181.797Z" fill="#E5E5E5"/>
<path d="M496.506 236.335H495.691V231.125H496.506V236.335ZM496.506 225.916H495.691V220.707H496.506V225.916ZM496.506 215.497H495.691V210.288H496.506V215.497ZM496.506 205.079H495.691V199.869H496.506V205.079ZM496.506 194.66H495.691V189.451H496.506V194.66Z" fill="#E5E5E5"/>
<path d="M496.506 241.543H495.691V243.988H496.506V241.543Z" fill="#E5E5E5"/>
<path d="M541.52 133.967H540.705V136.412H541.52V133.967Z" fill="#E5E5E5"/>
<path d="M541.52 236.538H540.705V231.532H541.52V236.538ZM541.52 226.526H540.705V221.519H541.52V226.526ZM541.52 216.513H540.705V211.507H541.52V216.513ZM541.52 206.5H540.705V201.494H541.52V206.5ZM541.52 196.488H540.705V191.482H541.52V196.488ZM541.52 186.475H540.705V181.469H541.52V186.475ZM541.52 176.463H540.705V171.457H541.52V176.463ZM541.52 166.45H540.705V161.444H541.52V166.45ZM541.52 156.438H540.705V151.431H541.52V156.438ZM541.52 146.425H540.705V141.419H541.52V146.425Z" fill="#E5E5E5"/>
<path d="M541.52 241.543H540.705V243.988H541.52V241.543Z" fill="#E5E5E5"/>
<path d="M586.086 114.408H585.271V116.853H586.086V114.408Z" fill="#E5E5E5"/>
<path d="M586.086 236.556H585.271V231.569H586.086V236.556ZM586.086 226.581H585.271V221.593H586.086V226.581ZM586.086 216.606H585.271V211.618H586.086V216.606ZM586.086 206.631H585.271V201.643H586.086V206.631ZM586.086 196.655H585.271V191.668H586.086V196.655ZM586.086 186.68H585.271V181.692H586.086V186.68ZM586.086 176.705H585.271V171.717H586.086V176.705ZM586.086 166.73H585.271V161.742H586.086V166.73ZM586.086 156.754H585.271V151.767H586.086V156.754ZM586.086 146.779H585.271V141.791H586.086V146.779ZM586.086 136.804H585.271V131.816H586.086V136.804ZM586.086 126.829H585.271V121.841H586.086V126.829Z" fill="#E5E5E5"/>
<path d="M586.086 241.543H585.271V243.988H586.086V241.543Z" fill="#E5E5E5"/>
<path d="M452.088 149.044H451.273V151.489H452.088V149.044Z" fill="#E5E5E5"/>
<path d="M452.088 236.804H451.273V232.065H452.088V236.804ZM452.088 227.325H451.273V222.585H452.088V227.325ZM452.088 217.845H451.273V213.106H452.088V217.845ZM452.088 208.366H451.273V203.626H452.088V208.366ZM452.088 198.886H451.273V194.147H452.088V198.886ZM452.088 189.407H451.273V184.667H452.088V189.407ZM452.088 179.928H451.273V175.188H452.088V179.928ZM452.088 170.448H451.273V165.708H452.088V170.448ZM452.088 160.969H451.273V156.229H452.088V160.969Z" fill="#E5E5E5"/>
<path d="M452.088 241.543H451.273V243.988H452.088V241.543Z" fill="#E5E5E5"/>
<path d="M631.289 245.124H361.483C361.259 245.124 361.044 245.035 360.886 244.877C360.728 244.718 360.639 244.504 360.639 244.28V114.962C360.639 114.738 360.728 114.523 360.886 114.365C361.044 114.207 361.259 114.118 361.483 114.118C361.707 114.118 361.922 114.207 362.08 114.365C362.238 114.523 362.327 114.738 362.327 114.962V243.435H631.289C631.512 243.435 631.727 243.524 631.886 243.683C632.044 243.841 632.133 244.056 632.133 244.28C632.133 244.504 632.044 244.718 631.886 244.877C631.727 245.035 631.512 245.124 631.289 245.124Z" fill="#3F3D56"/>
<path d="M496.468 182.931L451.61 149.332L407.364 182.472L406.352 181.12L451.61 147.222L496.254 180.662L540.619 132.112L540.797 132.039L585.548 114.008L586.18 115.576L541.607 133.534L496.468 182.931Z" fill="#3F3D56"/>
<path d="M406.857 186.863C409.655 186.863 411.923 184.595 411.923 181.797C411.923 178.999 409.655 176.73 406.857 176.73C404.059 176.73 401.791 178.999 401.791 181.797C401.791 184.595 404.059 186.863 406.857 186.863Z" fill="#2795C6"/>
<path d="M451.611 153.932C454.409 153.932 456.677 151.664 456.677 148.866C456.677 146.068 454.409 143.8 451.611 143.8C448.813 143.8 446.545 146.068 446.545 148.866C446.545 151.664 448.813 153.932 451.611 153.932Z" fill="#2795C6"/>
<path d="M496.361 186.863C499.159 186.863 501.427 184.595 501.427 181.797C501.427 178.999 499.159 176.73 496.361 176.73C493.563 176.73 491.295 178.999 491.295 181.797C491.295 184.595 493.563 186.863 496.361 186.863Z" fill="#2795C6"/>
<path d="M541.113 137.889C543.911 137.889 546.179 135.621 546.179 132.823C546.179 130.025 543.911 127.757 541.113 127.757C538.315 127.757 536.047 130.025 536.047 132.823C536.047 135.621 538.315 137.889 541.113 137.889Z" fill="#2795C6"/>
<path d="M585.865 119.313C588.663 119.313 590.931 117.045 590.931 114.247C590.931 111.449 588.663 109.181 585.865 109.181C583.067 109.181 580.799 111.449 580.799 114.247C580.799 117.045 583.067 119.313 585.865 119.313Z" fill="#2795C6"/>
<path d="M301.28 24.7358H299.555V329.569H301.28V24.7358Z" fill="#E5E5E5"/>
<path d="M707.996 326.449C708.591 325.74 709.025 324.909 709.264 324.014C709.504 323.119 709.545 322.183 709.383 321.271C709.222 320.358 708.863 319.493 708.331 318.734C707.799 317.976 707.107 317.344 706.304 316.882L710.515 294.762L699.715 299.263L697.372 319.578C696.685 320.979 696.536 322.582 696.952 324.085C697.369 325.588 698.322 326.886 699.632 327.733C700.941 328.58 702.516 328.917 704.058 328.68C705.599 328.444 707 327.65 707.996 326.449Z" fill="#F3B112"/>
<path d="M761.85 462.179H752.704L748.354 426.904L761.852 426.905L761.85 462.179Z" fill="#F3B112"/>
<path d="M764.182 471.045L734.693 471.044V470.671C734.694 467.627 735.903 464.707 738.055 462.555C740.208 460.403 743.127 459.193 746.171 459.193L764.182 459.194L764.182 471.045Z" fill="#2F2E41"/>
<path d="M711.869 462.179H702.724L698.373 426.904L711.871 426.905L711.869 462.179Z" fill="#F3B112"/>
<path d="M711.965 471.045L682.477 471.044V470.671C682.477 467.627 683.686 464.707 685.839 462.555C687.991 460.403 690.91 459.193 693.954 459.193L711.965 459.194L711.965 471.045Z" fill="#2F2E41"/>
<path d="M711.121 313.196L702.17 333.818L694.785 452.351L713.435 451.605L718.528 395.1L734.24 344.773L743.273 400.88L747.003 450.113L762.434 450.781L768.582 313.196H711.121Z" fill="#2F2E41"/>
<path d="M755.866 211.435L729.921 212.084L714.689 219.904L713.853 277.594L704.354 317.425C704.354 317.425 763.71 321.51 771.916 315.542L762.218 270.039L775.225 220.862L755.866 211.435Z" fill="#2795C6"/>
<path d="M717.462 220.806L714.69 219.904C714.69 219.904 705.899 225.546 706.736 239.186C706.736 239.186 706.406 246.245 706.721 250.942C707.082 256.33 696.277 309.873 696.277 309.873H711.942L718.656 261.385L717.462 220.806Z" fill="#2795C6"/>
<path d="M774.819 327.195C774.223 326.486 773.79 325.655 773.55 324.76C773.31 323.865 773.269 322.929 773.431 322.017C773.592 321.104 773.951 320.239 774.483 319.481C775.015 318.722 775.707 318.09 776.51 317.628L772.299 295.508L783.099 300.009L785.443 320.324C786.129 321.725 786.279 323.328 785.862 324.831C785.445 326.334 784.492 327.632 783.182 328.479C781.873 329.326 780.298 329.663 778.757 329.426C777.215 329.19 775.814 328.396 774.819 327.195Z" fill="#F3B112"/>
<path d="M771.32 221.551L774.092 220.649C774.092 220.649 782.883 226.291 782.046 239.932C782.046 239.932 782.376 246.99 782.061 251.688C781.7 257.076 786.537 310.618 786.537 310.618H770.872L764.158 262.131L771.32 221.551Z" fill="#2795C6"/>
<path d="M762.236 187.232C762.236 190.789 761.181 194.266 759.205 197.224C757.228 200.181 754.42 202.486 751.133 203.848C747.847 205.209 744.231 205.565 740.742 204.871C737.253 204.177 734.049 202.464 731.533 199.949C729.018 197.434 727.305 194.229 726.611 190.74C725.917 187.252 726.273 183.635 727.635 180.349C728.996 177.063 731.301 174.254 734.259 172.278C737.216 170.301 740.694 169.247 744.251 169.247C746.607 169.241 748.941 169.699 751.119 170.595C753.298 171.491 755.279 172.808 756.949 174.47C758.62 176.131 759.946 178.106 760.853 180.28C761.76 182.454 762.23 184.786 762.236 187.142C762.236 187.172 762.236 187.202 762.236 187.232Z" fill="#F3B112"/>
<path d="M726.326 163.075C728.433 158.544 732.51 159.44 736.076 160.976C740.592 159.974 744.886 156.975 749.752 158.749C754.544 165.719 770.634 163.668 767.211 175.016C767.207 177.735 772.328 176.152 771.434 180.606C774.146 189.176 761.642 205.407 754.463 201.989C756.238 198.736 760.294 191.345 754.143 190.612C740.91 202.924 752.777 167.166 736.151 177.565C730.646 182.603 723.109 168.114 726.326 163.075Z" fill="#2F2E41"/>
</g>
<defs>
<clipPath id="clip0_326_1149">
<rect width="888.102" height="473.305" fill="white"/>
</clipPath>
</defs>
</svg>
