<svg width="114" height="95" viewBox="0 0 114 95" fill="none" xmlns="http://www.w3.org/2000/svg">
<g clip-path="url(#clip0_326_1246)">
<path d="M53.3063 94.8851C78.0597 94.8851 98.1263 93.859 98.1263 92.5932C98.1263 91.3274 78.0597 90.3013 53.3063 90.3013C28.5529 90.3013 8.48633 91.3274 8.48633 92.5932C8.48633 93.859 28.5529 94.8851 53.3063 94.8851Z" fill="#F2F2F2"/>
<path d="M79.4917 22.0213H78.9825V8.07294C78.9825 5.93187 78.132 3.87848 76.618 2.36451C75.1041 0.850543 73.0507 2.36391e-06 70.9096 0H41.3581C39.217 -4.05238e-06 37.1636 0.850529 35.6497 2.36449C34.1357 3.87846 33.2852 5.93184 33.2852 8.07291V84.5947C33.2852 86.7358 34.1357 88.7892 35.6497 90.3031C37.1636 91.8171 39.217 92.6676 41.3581 92.6677H70.9096C73.0506 92.6677 75.104 91.8171 76.618 90.3032C78.132 88.7892 78.9825 86.7358 78.9825 84.5947V31.95H79.4917L79.4917 22.0213Z" fill="#3F3D56"/>
<path d="M77.265 8.1294V84.5386C77.265 86.1376 76.6298 87.6711 75.4991 88.8017C74.3685 89.9324 72.835 90.5676 71.236 90.5676H41.5427C39.9437 90.5676 38.4102 89.9324 37.2796 88.8017C36.1489 87.6711 35.5137 86.1376 35.5137 84.5386V8.1294C35.5137 6.5304 36.1489 4.9969 37.2796 3.86624C38.4102 2.73558 39.9437 2.10037 41.5427 2.10034H45.1449C44.9679 2.5353 44.9005 3.00708 44.9486 3.4742C44.9967 3.94132 45.1589 4.38945 45.4208 4.77919C45.6828 5.16892 46.0365 5.48831 46.4509 5.70925C46.8653 5.9302 47.3276 6.04594 47.7972 6.04628H64.7269C65.1965 6.04593 65.6588 5.9302 66.0731 5.70925C66.4875 5.4883 66.8412 5.16891 67.1032 4.77918C67.3651 4.38945 67.5273 3.94131 67.5754 3.4742C67.6236 3.00708 67.5562 2.5353 67.3792 2.10034H71.236C72.835 2.10037 74.3685 2.73558 75.4991 3.86624C76.6298 4.9969 77.265 6.5304 77.265 8.1294Z" fill="white"/>
<path d="M67.6981 41.0765C67.5007 41.1797 67.2999 41.2773 67.0957 41.3694C66.9098 41.4534 66.721 41.5324 66.5291 41.6062C66.4591 41.633 66.3878 41.6597 66.3165 41.6864C65.7527 41.8909 65.1737 42.0506 64.5848 42.1639C64.2932 42.2212 63.9978 42.2662 63.6986 42.2989C63.4516 42.3269 63.202 42.3469 62.9499 42.3587C62.7704 42.3677 62.5908 42.3715 62.41 42.3715C61.694 42.3718 60.9795 42.3048 60.276 42.1716C60.0926 42.1385 59.9131 42.099 59.7335 42.0557C58.8651 41.8476 58.0244 41.5373 57.229 41.1313C57.1577 41.0956 57.0864 41.0574 57.015 41.0205C56.9094 40.9645 56.8063 40.9059 56.7031 40.8448C56.7527 40.776 56.8063 40.7085 56.861 40.6423C57.4568 39.904 58.2015 39.2994 59.0466 38.8681C59.8917 38.4369 60.8182 38.1885 61.7657 38.1392C62.7132 38.09 63.6604 38.2409 64.5457 38.5823C65.4309 38.9236 66.2343 39.4477 66.9035 40.1203C67.1357 40.3533 67.351 40.6027 67.5478 40.8664C67.5999 40.9352 67.6496 41.0052 67.6981 41.0765Z" fill="#2795C6"/>
<path d="M62.6652 35.4835C65.7531 35.4835 68.2562 32.9803 68.2562 29.8925C68.2562 26.8047 65.7531 24.3015 62.6652 24.3015C59.5774 24.3015 57.0742 26.8047 57.0742 29.8925C57.0742 32.9803 59.5774 35.4835 62.6652 35.4835Z" fill="#2F2E41"/>
<path d="M64.1511 35.4912C66.1676 34.3888 66.9087 31.8605 65.8064 29.8439C64.704 27.8274 62.1757 27.0862 60.1591 28.1886C58.1426 29.2909 57.4014 31.8193 58.5038 33.8359C59.6061 35.8524 62.1345 36.5935 64.1511 35.4912Z" fill="#A0616A"/>
<path d="M66.5281 29.2225C65.5772 29.8779 64.4485 30.2267 63.2937 30.222C63.7056 30.5077 64.1746 30.7006 64.6683 30.7876C63.1328 31.117 61.5459 31.1259 60.0068 30.8138C59.6647 30.7589 59.3345 30.6455 59.0309 30.4786C58.8796 30.3941 58.7478 30.2787 58.644 30.1399C58.5402 30.0011 58.4668 29.8421 58.4286 29.6731C58.3263 29.0888 58.7816 28.558 59.2547 28.2002C59.9791 27.6609 60.8143 27.2893 61.6999 27.1123C62.5855 26.9353 63.4994 26.9574 64.3755 27.177C64.9475 27.3248 65.5205 27.5746 65.8921 28.034C66.2636 28.4934 66.3737 29.2016 66.0197 29.6746L66.5281 29.2225Z" fill="#2F2E41"/>
<path d="M62.4108 19.4521C59.9116 19.4518 57.4808 20.2686 55.4889 21.778C53.497 23.2874 52.0533 25.4067 51.3777 27.8129C50.7022 30.2191 50.8318 32.7801 51.747 35.1058C52.6621 37.4314 54.3126 39.394 56.4467 40.6945L56.5206 40.7378C56.5817 40.7748 56.6428 40.8104 56.7039 40.8448C56.8071 40.9059 56.9102 40.9645 57.0159 41.0205C57.0872 41.0574 57.1585 41.0956 57.2298 41.1313C58.0252 41.5373 58.8659 41.8476 59.7344 42.0557C59.9139 42.099 60.0934 42.1385 60.2768 42.1716C60.9803 42.3048 61.6948 42.3718 62.4108 42.3715C62.5916 42.3715 62.7712 42.3676 62.9507 42.3587C63.2029 42.3473 63.4524 42.3273 63.6994 42.2989C63.9987 42.2658 64.2941 42.2208 64.5856 42.1639C65.1745 42.0506 65.7536 41.8909 66.3173 41.6864C66.3886 41.6597 66.4599 41.633 66.53 41.6062C66.7222 41.5324 66.9111 41.4534 67.0965 41.3694C67.3003 41.2777 67.5011 41.1801 67.6989 41.0765C69.6811 40.0384 71.3194 38.4474 72.4151 36.4965C72.4202 36.4863 72.4266 36.4761 72.4317 36.4659C73.0163 35.4169 73.431 34.2819 73.6604 33.1031C73.9825 31.4437 73.9337 29.7336 73.5175 28.0952C73.1013 26.4569 72.328 24.9308 71.253 23.6263C70.178 22.3217 68.8278 21.2711 67.2992 20.5494C65.7705 19.8278 64.1012 19.4531 62.4108 19.4521ZM72.2229 36.3169C72.2127 36.3348 72.2038 36.3526 72.1936 36.3692C71.1197 38.2913 69.5044 39.8552 67.5486 40.8664C67.3537 40.9683 67.1555 41.0638 66.954 41.1529C66.7872 41.228 66.6166 41.2994 66.4446 41.3656C66.372 41.3936 66.2982 41.4216 66.2244 41.4471C65.7373 41.625 65.2382 41.7679 64.7308 41.8749C64.3544 41.955 63.974 42.0149 63.5912 42.0544C63.3556 42.0799 63.1162 42.0977 62.8756 42.1066C62.7215 42.113 62.5662 42.1168 62.4108 42.1168C61.7179 42.1176 61.0264 42.0533 60.3456 41.9245C59.9314 41.8481 59.5219 41.7478 59.1193 41.624C58.5061 41.4346 57.9101 41.193 57.338 40.9021C57.2718 40.8677 57.2056 40.8333 57.1406 40.7977C57.0477 40.748 56.9535 40.6971 56.8618 40.6423C56.793 40.6041 56.7243 40.5634 56.6568 40.5226C56.6173 40.4997 56.5778 40.4755 56.5384 40.4513C54.6672 39.3022 53.1746 37.629 52.2457 35.6394C51.3168 33.6497 50.9925 31.431 51.3131 29.2587C51.6336 27.0864 52.5849 25.056 54.0488 23.4194C55.5128 21.7828 57.4251 20.612 59.5484 20.0523C61.6717 19.4926 63.9126 19.5687 65.9931 20.2709C68.0736 20.9732 69.9021 22.2709 71.2519 24.0029C72.6016 25.735 73.4131 27.8251 73.5857 30.0142C73.7583 32.2032 73.2844 34.3948 72.2229 36.3169Z" fill="#3F3D56"/>
<path d="M59.8338 24.3785C59.7736 23.7459 58.9987 23.3565 58.3927 23.5476C57.7867 23.7386 57.3888 24.3488 57.2686 24.9728C57.2107 25.2356 57.2052 25.5072 57.2526 25.772C57.2999 26.0369 57.399 26.2898 57.5443 26.5163C57.8506 26.9572 58.4135 27.2323 58.9385 27.1204C59.5379 26.9926 59.9531 26.4074 60.0719 25.8062C60.1907 25.205 60.0728 24.5852 59.955 23.9838L59.8338 24.3785Z" fill="#2F2E41"/>
<path d="M68.3631 25.2821C68.3029 24.6495 67.528 24.2601 66.922 24.4511C66.316 24.6422 65.9181 25.2524 65.7978 25.8763C65.74 26.1391 65.7345 26.4107 65.7819 26.6756C65.8292 26.9405 65.9283 27.1934 66.0736 27.4199C66.3799 27.8607 66.9428 28.1359 67.4678 28.0239C68.0672 27.8962 68.4824 27.311 68.6012 26.7098C68.72 26.1086 68.6021 25.4888 68.4843 24.8874L68.3631 25.2821Z" fill="#2F2E41"/>
<path d="M42.6024 35.4918C42.5231 35.4917 42.4447 35.4751 42.3722 35.443C42.2997 35.4109 42.2347 35.364 42.1814 35.3053L35.863 28.4125C35.7913 28.3345 35.7042 28.2722 35.6072 28.2295C35.5102 28.1868 35.4054 28.1647 35.2994 28.1646H1.91112C1.40444 28.164 0.918665 27.9625 0.560383 27.6042C0.202101 27.2459 0.000568881 26.7602 0 26.2535V14.2129C0.000568544 13.7062 0.202101 13.2204 0.560383 12.8621C0.918666 12.5039 1.40444 12.3023 1.91112 12.3018H45.1682C45.6749 12.3023 46.1606 12.5039 46.5189 12.8621C46.8772 13.2204 47.0787 13.7062 47.0793 14.2129V26.2535C47.0787 26.7602 46.8772 27.2459 46.5189 27.6042C46.1606 27.9625 45.6749 28.164 45.1682 28.1646H43.9418C43.7391 28.1648 43.5448 28.2455 43.4014 28.3888C43.2581 28.5322 43.1775 28.7265 43.1773 28.9292V34.9179C43.1778 35.0335 43.1431 35.1466 43.0778 35.242C43.0125 35.3374 42.9197 35.4107 42.8118 35.4522C42.7451 35.4783 42.6741 35.4917 42.6024 35.4918Z" fill="white"/>
<path d="M42.6024 35.4918C42.5231 35.4917 42.4447 35.4751 42.3722 35.443C42.2997 35.4109 42.2347 35.364 42.1814 35.3053L35.863 28.4125C35.7913 28.3345 35.7042 28.2722 35.6072 28.2295C35.5102 28.1868 35.4054 28.1647 35.2994 28.1646H1.91112C1.40444 28.164 0.918665 27.9625 0.560383 27.6042C0.202101 27.2459 0.000568881 26.7602 0 26.2535V14.2129C0.000568544 13.7062 0.202101 13.2204 0.560383 12.8621C0.918666 12.5039 1.40444 12.3023 1.91112 12.3018H45.1682C45.6749 12.3023 46.1606 12.5039 46.5189 12.8621C46.8772 13.2204 47.0787 13.7062 47.0793 14.2129V26.2535C47.0787 26.7602 46.8772 27.2459 46.5189 27.6042C46.1606 27.9625 45.6749 28.164 45.1682 28.1646H43.9418C43.7391 28.1648 43.5448 28.2455 43.4014 28.3888C43.2581 28.5322 43.1775 28.7265 43.1773 28.9292V34.9179C43.1778 35.0335 43.1431 35.1466 43.0778 35.242C43.0125 35.3374 42.9197 35.4107 42.8118 35.4522C42.7451 35.4783 42.6741 35.4917 42.6024 35.4918ZM1.91112 12.5564C1.47195 12.5569 1.05091 12.7316 0.740373 13.0421C0.429833 13.3527 0.255155 13.7737 0.254659 14.2129V26.2535C0.255156 26.6927 0.429835 27.1137 0.740375 27.4242C1.05092 27.7348 1.47195 27.9095 1.91112 27.9099H35.2994C35.4407 27.9101 35.5804 27.9396 35.7097 27.9964C35.839 28.0533 35.9551 28.1364 36.0507 28.2405L42.3691 35.1332C42.4125 35.1805 42.4691 35.2137 42.5317 35.2282C42.5942 35.2428 42.6596 35.2381 42.7195 35.2149C42.7793 35.1916 42.8307 35.1508 42.8669 35.0978C42.9032 35.0448 42.9226 34.9821 42.9226 34.9179V28.9292C42.9229 28.659 43.0304 28.3999 43.2214 28.2088C43.4125 28.0177 43.6716 27.9103 43.9418 27.9099H45.1682C45.6073 27.9095 46.0284 27.7348 46.3389 27.4242C46.6495 27.1137 46.8241 26.6927 46.8246 26.2535V14.2129C46.8241 13.7737 46.6495 13.3527 46.3389 13.0421C46.0284 12.7316 45.6074 12.5569 45.1682 12.5564H1.91112Z" fill="#3F3D56"/>
<path d="M4.68793 17.6132C5.61152 17.6132 6.36024 16.8645 6.36024 15.9409C6.36024 15.0173 5.61152 14.2686 4.68793 14.2686C3.76434 14.2686 3.01562 15.0173 3.01562 15.9409C3.01562 16.8645 3.76434 17.6132 4.68793 17.6132Z" fill="#2795C6"/>
<path d="M43.2167 25.1942H3.86171C3.7445 25.1943 3.62841 25.1714 3.52007 25.1266C3.41174 25.0819 3.31329 25.0162 3.23036 24.9333C3.14743 24.8505 3.08163 24.7521 3.03674 24.6439C2.99185 24.5356 2.96875 24.4195 2.96875 24.3023C2.96875 24.1851 2.99185 24.069 3.03674 23.9607C3.08163 23.8525 3.14743 23.7541 3.23036 23.6713C3.31329 23.5884 3.41174 23.5227 3.52007 23.478C3.62841 23.4332 3.7445 23.4103 3.86171 23.4104H43.2167C43.4531 23.4107 43.6797 23.5048 43.8467 23.672C44.0137 23.8392 44.1076 24.0659 44.1076 24.3023C44.1076 24.5387 44.0137 24.7654 43.8467 24.9326C43.6797 25.0998 43.4531 25.1939 43.2167 25.1942Z" fill="#E6E6E6"/>
<path d="M30.3957 21.4037H3.86171C3.7445 21.4038 3.62841 21.3808 3.52007 21.3361C3.41174 21.2913 3.31329 21.2257 3.23036 21.1428C3.14743 21.06 3.08163 20.9616 3.03674 20.8533C2.99185 20.7451 2.96875 20.629 2.96875 20.5118C2.96875 20.3946 2.99185 20.2785 3.03674 20.1702C3.08163 20.0619 3.14743 19.9636 3.23036 19.8807C3.31329 19.7979 3.41174 19.7322 3.52007 19.6875C3.62841 19.6427 3.7445 19.6197 3.86171 19.6199H30.3957C30.6322 19.6199 30.8591 19.7138 31.0264 19.8811C31.1936 20.0484 31.2876 20.2752 31.2876 20.5118C31.2876 20.7483 31.1936 20.9752 31.0264 21.1424C30.8591 21.3097 30.6322 21.4037 30.3957 21.4037Z" fill="#E6E6E6"/>
<path d="M70.6776 76.325C70.5697 76.2835 70.4769 76.2102 70.4117 76.1148C70.3464 76.0194 70.3117 75.9063 70.3122 75.7907V69.802C70.312 69.5993 70.2314 69.405 70.088 69.2616C69.9447 69.1183 69.7503 69.0376 69.5476 69.0374H68.3213C67.8146 69.0368 67.3288 68.8353 66.9705 68.477C66.6123 68.1187 66.4107 67.633 66.4102 67.1263V55.0857C66.4107 54.579 66.6123 54.0932 66.9705 53.7349C67.3288 53.3767 67.8146 53.1751 68.3213 53.1746H111.578C112.085 53.1751 112.571 53.3767 112.929 53.7349C113.287 54.0932 113.489 54.579 113.489 55.0857V67.1263C113.489 67.633 113.287 68.1187 112.929 68.477C112.571 68.8353 112.085 69.0368 111.578 69.0374H78.19C78.084 69.0375 77.9792 69.0596 77.8822 69.1023C77.7852 69.145 77.6981 69.2073 77.6264 69.2853L71.3081 76.1781C71.2547 76.2368 71.1897 76.2837 71.1172 76.3158C71.0447 76.3479 70.9663 76.3645 70.887 76.3646C70.8154 76.3645 70.7444 76.3511 70.6776 76.325Z" fill="white"/>
<path d="M70.6776 76.325C70.5697 76.2835 70.4769 76.2102 70.4117 76.1148C70.3464 76.0194 70.3117 75.9063 70.3122 75.7907V69.802C70.312 69.5993 70.2314 69.405 70.088 69.2616C69.9447 69.1183 69.7503 69.0376 69.5476 69.0374H68.3213C67.8146 69.0368 67.3288 68.8353 66.9705 68.477C66.6123 68.1187 66.4107 67.633 66.4102 67.1263V55.0857C66.4107 54.579 66.6123 54.0932 66.9705 53.7349C67.3288 53.3767 67.8146 53.1751 68.3213 53.1746H111.578C112.085 53.1751 112.571 53.3767 112.929 53.7349C113.287 54.0932 113.489 54.579 113.489 55.0857V67.1263C113.489 67.633 113.287 68.1187 112.929 68.477C112.571 68.8353 112.085 69.0368 111.578 69.0374H78.19C78.084 69.0375 77.9792 69.0596 77.8822 69.1023C77.7852 69.145 77.6981 69.2073 77.6264 69.2853L71.3081 76.1781C71.2547 76.2368 71.1897 76.2837 71.1172 76.3158C71.0447 76.3479 70.9663 76.3645 70.887 76.3646C70.8154 76.3645 70.7444 76.3511 70.6776 76.325ZM68.3213 53.4292C67.8821 53.4297 67.4611 53.6044 67.1505 53.9149C66.84 54.2255 66.6653 54.6465 66.6648 55.0857V67.1263C66.6653 67.5655 66.84 67.9865 67.1505 68.297C67.4611 68.6076 67.8821 68.7822 68.3213 68.7827H69.5476C69.8179 68.783 70.0769 68.8905 70.268 69.0816C70.4591 69.2727 70.5666 69.5318 70.5669 69.802V75.7907C70.5669 75.8549 70.5863 75.9176 70.6225 75.9706C70.6588 76.0236 70.7102 76.0644 70.77 76.0877C70.8298 76.1109 70.8953 76.1156 70.9578 76.101C71.0203 76.0865 71.077 76.0533 71.1204 76.006L77.4387 69.1133C77.5343 69.0092 77.6504 68.9261 77.7797 68.8692C77.9091 68.8124 78.0488 68.7829 78.19 68.7827H111.578C112.017 68.7822 112.439 68.6076 112.749 68.297C113.06 67.9865 113.234 67.5654 113.235 67.1263V55.0857C113.234 54.6465 113.06 54.2255 112.749 53.9149C112.439 53.6044 112.017 53.4297 111.578 53.4292H68.3213Z" fill="#3F3D56"/>
<path d="M57.194 80.0534C55.4201 81.1892 53.3649 81.8087 51.2587 81.8422C49.1526 81.8757 47.0787 81.322 45.2695 80.2431C45.5878 79.6506 45.9911 79.108 46.4665 78.6324C47.2 77.8953 48.0928 77.3362 49.0762 76.998C50.0595 76.6598 51.1073 76.5516 52.1391 76.6815C53.1708 76.8115 54.159 77.1762 55.0278 77.7477C55.8966 78.3192 56.6228 79.0823 57.1507 79.9782C57.1646 80.0024 57.1799 80.0279 57.194 80.0534Z" fill="#2795C6"/>
<path d="M50.7336 73.9646C53.842 73.9646 56.3618 71.4448 56.3618 68.3364C56.3618 65.2281 53.842 62.7083 50.7336 62.7083C47.6253 62.7083 45.1055 65.2281 45.1055 68.3364C45.1055 71.4448 47.6253 73.9646 50.7336 73.9646Z" fill="#2F2E41"/>
<path d="M54.9209 72.3061C56.0306 70.2761 55.2846 67.7309 53.2546 66.6212C51.2246 65.5116 48.6795 66.2576 47.5698 68.2876C46.4601 70.3175 47.2062 72.8627 49.2361 73.9724C51.2661 75.0821 53.8113 74.336 54.9209 72.3061Z" fill="#FFB8B8"/>
<path d="M46.8438 67.6621C47.801 68.3218 48.9371 68.6729 50.0997 68.6683C49.685 68.9558 49.2129 69.1501 48.7159 69.2376C50.2616 69.5692 51.8591 69.5781 53.4084 69.264C53.7528 69.2087 54.0851 69.0946 54.3908 68.9266C54.5431 68.8415 54.6758 68.7254 54.7802 68.5856C54.8847 68.4459 54.9586 68.2858 54.9971 68.1157C55.1 67.5275 54.6418 66.9932 54.1655 66.6331C53.4363 66.0901 52.5955 65.716 51.704 65.5379C50.8125 65.3597 49.8925 65.382 49.0107 65.603C48.4349 65.7518 47.858 66.0033 47.484 66.4657C47.11 66.9282 46.9992 67.6411 47.3555 68.1173L46.8438 67.6621Z" fill="#2F2E41"/>
<path d="M51.0776 81.9711C48.3212 81.9702 45.6575 80.9756 43.5752 79.1696C41.4929 77.3637 40.1315 74.8675 39.7407 72.1389C39.35 69.4104 39.9561 66.6325 41.4479 64.3147C42.9397 61.9969 45.2172 60.2947 47.8625 59.5203C50.5079 58.7459 53.3437 58.9512 55.85 60.0986C58.3562 61.246 60.3647 63.2585 61.507 65.767C62.6494 68.2755 62.849 71.1118 62.0693 73.7556C61.2896 76.3994 59.5828 78.6734 57.2621 80.1606C55.4165 81.344 53.2699 81.9724 51.0776 81.9711ZM51.0776 59.3064C48.8611 59.3062 46.6944 59.9632 44.8514 61.1945C43.0084 62.4258 41.572 64.1759 40.7237 66.2236C39.8754 68.2713 39.6534 70.5245 40.0857 72.6984C40.5181 74.8722 41.5854 76.8691 43.1526 78.4363C44.7199 80.0036 46.7167 81.0709 48.8906 81.5032C51.0644 81.9356 53.3177 81.7136 55.3654 80.8653C57.4131 80.017 59.1632 78.5805 60.3944 76.7375C61.6257 74.8945 62.2828 72.7278 62.2826 70.5114C62.2792 67.5407 61.0976 64.6926 58.997 62.592C56.8964 60.4913 54.0483 59.3097 51.0776 59.3064Z" fill="#3F3D56"/>
<path d="M71.7915 58.3585C72.715 58.3585 73.4638 57.6098 73.4638 56.6862C73.4638 55.7626 72.715 55.0139 71.7915 55.0139C70.8679 55.0139 70.1191 55.7626 70.1191 56.6862C70.1191 57.6098 70.8679 58.3585 71.7915 58.3585Z" fill="#2795C6"/>
<path d="M110.32 65.9398H70.9652C70.848 65.9399 70.7319 65.917 70.6236 65.8722C70.5153 65.8275 70.4168 65.7618 70.3339 65.6789C70.2509 65.5961 70.1851 65.4977 70.1403 65.3895C70.0954 65.2812 70.0723 65.1651 70.0723 65.0479C70.0723 64.9307 70.0954 64.8146 70.1403 64.7063C70.1851 64.5981 70.2509 64.4997 70.3339 64.4169C70.4168 64.334 70.5153 64.2683 70.6236 64.2236C70.7319 64.1788 70.848 64.1559 70.9652 64.156H110.32C110.557 64.156 110.784 64.25 110.951 64.4172C111.118 64.5845 111.212 64.8114 111.212 65.0479C111.212 65.2845 111.118 65.5113 110.951 65.6786C110.784 65.8458 110.557 65.9398 110.32 65.9398Z" fill="#E6E6E6"/>
<path d="M97.4992 62.1493H70.9652C70.848 62.1494 70.7319 62.1265 70.6236 62.0817C70.5153 62.0369 70.4168 61.9713 70.3339 61.8884C70.2509 61.8056 70.1851 61.7072 70.1403 61.5989C70.0954 61.4907 70.0723 61.3746 70.0723 61.2574C70.0723 61.1402 70.0954 61.0241 70.1403 60.9158C70.1851 60.8075 70.2509 60.7092 70.3339 60.6263C70.4168 60.5435 70.5153 60.4778 70.6236 60.4331C70.7319 60.3883 70.848 60.3653 70.9652 60.3655H97.4992C97.7356 60.3658 97.9621 60.4599 98.1292 60.6271C98.2962 60.7943 98.39 61.021 98.39 61.2574C98.39 61.4937 98.2962 61.7204 98.1292 61.8877C97.9621 62.0549 97.7356 62.149 97.4992 62.1493Z" fill="#E6E6E6"/>
<path d="M70.622 77.4648C72.3452 77.4648 73.7421 77.3098 73.7421 77.1185C73.7421 76.9273 72.3452 76.7722 70.622 76.7722C68.8989 76.7722 67.502 76.9273 67.502 77.1185C67.502 77.3098 68.8989 77.4648 70.622 77.4648Z" fill="#F2F2F2"/>
<path d="M42.7373 36.7194C44.4604 36.7194 45.8573 36.5644 45.8573 36.3731C45.8573 36.1819 44.4604 36.0269 42.7373 36.0269C41.0141 36.0269 39.6172 36.1819 39.6172 36.3731C39.6172 36.5644 41.0141 36.7194 42.7373 36.7194Z" fill="#F2F2F2"/>
</g>
<defs>
<clipPath id="clip0_326_1246">
<rect width="113.488" height="94.8853" fill="white"/>
</clipPath>
</defs>
</svg>
