<svg width="106" height="89" viewBox="0 0 106 89" fill="none" xmlns="http://www.w3.org/2000/svg">
<g clip-path="url(#clip0_326_1211)">
<path d="M97.2251 86.7498L95.6485 86.7497L94.8984 80.6685H97.2254L97.2251 86.7498Z" fill="#9E616A"/>
<path d="M97.6248 88.2783L92.541 88.2781V88.2138C92.5411 87.689 92.7495 87.1858 93.1206 86.8147C93.4917 86.4436 93.995 86.2351 94.5198 86.2351L97.6249 86.2352L97.6248 88.2783Z" fill="#2F2E41"/>
<path d="M91.1783 86.7498L89.6016 86.7497L88.8516 80.6685H91.1785L91.1783 86.7498Z" fill="#9E616A"/>
<path d="M91.5818 88.2783L86.498 88.2781V88.2138C86.4981 87.689 86.7066 87.1858 87.0776 86.8147C87.4487 86.4436 87.952 86.2351 88.4768 86.2351L91.5819 86.2352L91.5818 88.2783Z" fill="#2F2E41"/>
<path d="M23.0625 88.0427V39.198C23.0625 38.8972 23.182 38.6087 23.3947 38.3959C23.6074 38.1832 23.896 38.0637 24.1968 38.0637H29.2586C29.5594 38.0637 29.8479 38.1832 30.0607 38.3959C30.2734 38.6087 30.3929 38.8972 30.3929 39.198V88.17L23.0625 88.0427Z" fill="#3F3D56"/>
<path d="M39.7812 88.196V49.3579C39.7812 49.0571 39.9008 48.7686 40.1135 48.5559C40.3262 48.3431 40.6147 48.2236 40.9155 48.2236H45.9773C46.2782 48.2236 46.5667 48.3431 46.7794 48.5559C46.9921 48.7686 47.1116 49.0571 47.1116 49.3579V88.1124L39.7812 88.196Z" fill="#3F3D56"/>
<path d="M10.0752 42.0531C10.0006 42.0531 9.92774 42.0315 9.86524 41.9909C9.80274 41.9504 9.75332 41.8926 9.72295 41.8245C9.69258 41.7565 9.68257 41.6811 9.69411 41.6075C9.70566 41.5339 9.73827 41.4652 9.78801 41.4098L26.7129 22.532L43.3693 31.8852L60.1249 3.01416L77.194 17.0634C77.2332 17.0956 77.2657 17.1352 77.2895 17.1799C77.3134 17.2246 77.3282 17.2736 77.3331 17.3241C77.338 17.3745 77.3329 17.4255 77.3182 17.4739C77.3034 17.5224 77.2792 17.5675 77.247 17.6067C77.2148 17.6458 77.1752 17.6782 77.1304 17.7021C77.0857 17.7259 77.0367 17.7407 76.9862 17.7455C76.9358 17.7504 76.8848 17.7453 76.8364 17.7305C76.7879 17.7157 76.7428 17.6915 76.7037 17.6592L60.3361 4.18741L43.6548 32.9305L26.8745 23.5077L10.3625 41.9248C10.3264 41.9652 10.2821 41.9976 10.2326 42.0197C10.183 42.0418 10.1294 42.0532 10.0752 42.0531Z" fill="#3F3D56"/>
<path d="M10.011 45.2682C11.9998 45.2682 13.6119 43.656 13.6119 41.6673C13.6119 39.6786 11.9998 38.0664 10.011 38.0664C8.02233 38.0664 6.41016 39.6786 6.41016 41.6673C6.41016 43.656 8.02233 45.2682 10.011 45.2682Z" fill="#2795C6"/>
<path d="M26.7298 26.6207C28.7185 26.6207 30.3307 25.0085 30.3307 23.0198C30.3307 21.0311 28.7185 19.4189 26.7298 19.4189C24.7411 19.4189 23.1289 21.0311 23.1289 23.0198C23.1289 25.0085 24.7411 26.6207 26.7298 26.6207Z" fill="#CCCCCC"/>
<path d="M43.4466 36.0089C45.4353 36.0089 47.0475 34.3967 47.0475 32.408C47.0475 30.4193 45.4353 28.8071 43.4466 28.8071C41.4579 28.8071 39.8457 30.4193 39.8457 32.408C39.8457 34.3967 41.4579 36.0089 43.4466 36.0089Z" fill="#E6E6E6"/>
<path d="M60.1653 7.20177C62.1541 7.20177 63.7662 5.5896 63.7662 3.60088C63.7662 1.61217 62.1541 0 60.1653 0C58.1766 0 56.5645 1.61217 56.5645 3.60088C56.5645 5.5896 58.1766 7.20177 60.1653 7.20177Z" fill="#2795C6"/>
<path d="M92.3157 34.0201C94.3044 34.0201 95.9166 32.408 95.9166 30.4192C95.9166 28.4305 94.3044 26.8184 92.3157 26.8184C90.327 26.8184 88.7148 28.4305 88.7148 30.4192C88.7148 32.408 90.327 34.0201 92.3157 34.0201Z" fill="#2795C6"/>
<path d="M91.0428 58.4702C92.3905 58.6326 95.837 57.4031 96.0238 59.2736C97.7977 64.4955 97.7451 84.5127 97.7451 84.5127L95.0444 84.6413C95.0444 84.6413 92.8863 68.7364 91.8659 65.3338C91.3538 69.4695 91.4435 85.2843 91.4435 85.2843L89.0001 85.4129C89.0001 85.4129 86.8083 71.946 86.7957 67.9933C86.5294 65.0979 87.1827 60.8074 86.9031 58.0085C88.2394 58.4321 89.646 58.589 91.0428 58.4702Z" fill="#3F3D56"/>
<path d="M73.2168 88.0231V31.7266C73.2168 31.0046 73.7247 30.4192 74.3511 30.4192H79.4129C80.0393 30.4192 80.5472 31.0045 80.5472 31.7266V88.1704L73.2168 88.0231Z" fill="#3F3D56"/>
<path d="M86.4588 43.3204C85.9183 42.2154 85.258 41.173 84.4899 40.2121C84.3294 40.0244 84.1832 39.8249 84.0526 39.6154C83.7761 39.1357 83.6938 38.5724 83.5189 38.0477C83.0302 36.5765 81.8111 35.3946 81.514 33.8732C81.406 33.3203 80.4935 34.9275 80.7334 35.6132C81.1616 36.8543 81.2169 38.1686 81.7622 39.3672C82.3075 40.5657 82.9479 41.7155 83.4186 42.941C83.6861 43.6368 83.8996 44.3557 84.2918 44.9987C84.6841 45.6417 85.2962 46.1806 86.0357 46.277C86.0307 45.8108 86.1015 45.347 86.2453 44.9035C86.4061 44.3968 86.6916 43.8001 86.4588 43.3204Z" fill="#9E616A"/>
<path d="M94.5463 44.154C94.5132 43.2447 94.6551 42.3374 94.9643 41.4816C95.0826 41.1537 95.2215 40.8206 95.2099 40.4721C95.1932 40.148 95.0389 39.8509 94.8987 39.5577C94.4151 38.5482 94.0756 37.4782 93.7413 36.4108L93.0982 34.3982C92.8886 34.2444 94.1129 34.1911 94.374 34.5525C95.2279 35.7382 95.8748 37.1001 96.5512 38.3952C96.7238 38.7037 96.8709 39.0259 96.9911 39.3584C97.1563 39.8972 97.2344 40.459 97.2225 41.0225C97.2225 42.0758 97.0837 43.1252 96.9396 44.1694C96.8483 44.824 96.7287 45.5365 96.2336 45.9699C95.7192 45.3114 95.2022 44.6684 94.5463 44.154Z" fill="#9E616A"/>
<path d="M91.147 43.1122C92.6208 43.1122 93.8155 41.9174 93.8155 40.4437C93.8155 38.9699 92.6208 37.7751 91.147 37.7751C89.6732 37.7751 88.4785 38.9699 88.4785 40.4437C88.4785 41.9174 89.6732 43.1122 91.147 43.1122Z" fill="#9E616A"/>
<path d="M88.978 37.7811C88.948 37.7001 88.9413 37.6123 88.9586 37.5277C88.9758 37.4431 89.0164 37.365 89.0757 37.3022C89.1423 37.2497 89.2308 37.2301 89.3022 37.18C89.4038 37.0947 89.4869 36.9895 89.5465 36.871C89.7288 36.6159 89.9956 36.4336 90.2995 36.3565C90.6034 36.2793 90.9248 36.3123 91.2067 36.4496C91.6477 36.6804 91.9139 37.1426 92.3061 37.4538C92.5053 37.615 92.7362 37.7347 92.9365 37.896C93.3377 38.2426 93.623 38.7039 93.7537 39.2177C93.8838 39.7281 93.9597 40.2507 93.9803 40.777C94.0012 40.9349 93.995 41.0952 93.962 41.251C93.9214 41.3817 93.8609 41.5053 93.7825 41.6175C93.3794 42.2283 92.848 42.7829 92.1822 43.0981C91.5164 43.4133 90.7065 43.4646 90.0499 43.1348C89.9838 43.108 89.9269 43.0626 89.8862 43.004C89.8489 42.9149 89.84 42.8164 89.8606 42.7219C89.8963 42.3486 89.8224 41.9729 89.6481 41.6408C89.5259 41.3965 89.3426 41.1864 89.2449 40.9336C89.1541 40.6505 89.1151 40.3534 89.1301 40.0565C89.1185 39.2873 89.1707 38.5214 88.978 37.7811Z" fill="#2D293D"/>
<path d="M6.34375 88.0996V60.9205C6.34375 60.572 6.8516 60.2893 7.47803 60.2893H12.5398C13.1663 60.2893 13.6741 60.5722 13.6741 60.9205V88.1704L6.34375 88.0996Z" fill="#3F3D56"/>
<path d="M105.476 88.4535H0.128603C0.0944954 88.4535 0.0617846 88.4399 0.0376669 88.4158C0.0135491 88.3917 0 88.359 0 88.3249C0 88.2908 0.0135491 88.2581 0.0376669 88.234C0.0617846 88.2098 0.0944954 88.1963 0.128603 88.1963H105.476C105.51 88.1963 105.543 88.2098 105.567 88.234C105.591 88.2581 105.605 88.2908 105.605 88.3249C105.605 88.359 105.591 88.3917 105.567 88.4158C105.543 88.4399 105.51 88.4535 105.476 88.4535H105.476Z" fill="#E6E6E6"/>
<path d="M56.498 88.0037V24.1176C56.498 23.2983 57.0059 22.634 57.6323 22.634H62.6941C63.3206 22.634 63.8284 23.2983 63.8284 24.1176V88.1703L56.498 88.0037Z" fill="#2795C6"/>
<path d="M80.6574 35.2843C81.2967 35.2843 81.8149 34.7661 81.8149 34.1269C81.8149 33.4877 81.2967 32.9695 80.6574 32.9695C80.0182 32.9695 79.5 33.4877 79.5 34.1269C79.5 34.7661 80.0182 35.2843 80.6574 35.2843Z" fill="#A0616A"/>
<path d="M93.5188 34.7699C94.158 34.7699 94.6762 34.2517 94.6762 33.6125C94.6762 32.9733 94.158 32.4551 93.5188 32.4551C92.8795 32.4551 92.3613 32.9733 92.3613 33.6125C92.3613 34.2517 92.8795 34.7699 93.5188 34.7699Z" fill="#A0616A"/>
<path d="M96.3308 47.9401C96.4437 47.8368 97.3644 42.4521 97.3591 42.3308C97.3448 41.6674 95.3207 40.9097 94.9156 41.1734C94.5334 41.4221 93.8679 44.2758 93.4396 44.7955L92.9866 44.0026H89.3857L89.1674 44.4079C88.6949 44.1233 88.2699 43.8609 88.1183 43.774C88.0662 43.7387 88.0095 43.7108 87.9497 43.6911C87.5754 43.6074 87.2242 43.4423 86.9209 43.2075C86.6251 42.9799 85.2524 40.5959 84.8846 40.6589C84.4692 40.7284 83.0681 41.9398 83.0841 43.1024C83.2605 43.0986 85.5551 47.6868 85.5873 47.8578C85.7635 48.5805 86.3452 59.1209 86.533 59.6121C87.398 59.5285 86.7151 59.3793 87.5523 59.6121C88.4538 59.8629 89.4055 59.5915 90.3353 59.4912C90.7224 59.4529 91.1114 59.4357 91.5004 59.4398C92.9151 59.4462 94.9341 59.5247 96.3037 59.8758C96.3115 58.9781 95.5231 57.0362 95.2312 56.1887C95.1929 55.9354 95.1942 55.6777 95.2351 55.4248C95.2724 55.1149 96.0254 48.2828 96.3308 47.9401Z" fill="#E6E6E6"/>
</g>
<defs>
<clipPath id="clip0_326_1211">
<rect width="105.605" height="88.4534" fill="white"/>
</clipPath>
</defs>
</svg>
