<svg width="106" height="97" viewBox="0 0 106 97" fill="none" xmlns="http://www.w3.org/2000/svg">
<g clip-path="url(#clip0_326_1284)">
<path d="M73.2506 95.8728H43.1735C38.6623 95.8728 34.9922 92.2026 34.9922 87.6914V8.18135C34.9922 3.67016 38.6623 0 43.1735 0H73.2506C77.7617 0 81.4319 3.67016 81.4319 8.18135C81.9918 40.1101 82.9465 75.8653 81.4319 87.6914C81.4319 92.2026 77.7617 95.8728 73.2506 95.8728Z" fill="#3F3D56"/>
<path d="M81.85 29.2466C81.6591 29.2466 81.5039 29.4018 81.5039 29.5927V40.6682C81.5039 40.8591 81.6591 41.0144 81.85 41.0144C82.0409 41.0144 82.1961 40.8591 82.1961 40.6682V29.5927C82.1961 29.4018 82.0409 29.2466 81.85 29.2466Z" fill="#3F3D56"/>
<path d="M80.6517 8.18138V87.69C80.6517 91.6166 77.5956 94.8285 73.7313 95.0777H73.7295C73.6724 95.0812 73.6153 95.0846 73.5565 95.0864C73.4544 95.0916 73.3523 95.0933 73.2484 95.0933C73.2484 95.0933 72.8677 95.0656 72.172 95.0137C71.4694 94.9618 70.4467 94.8839 69.1712 94.7818C68.7888 94.7524 68.3856 94.7195 67.9599 94.6849C67.1119 94.6157 66.1808 94.5395 65.1823 94.453C64.7843 94.4201 64.3724 94.3838 63.9519 94.3474C61.8025 94.1623 59.3953 93.9459 56.8566 93.7002C56.4274 93.6604 55.9948 93.6189 55.5587 93.5756C55.4445 93.5635 35.7695 88.6176 35.7695 87.69V8.18138C35.7695 4.09209 39.0835 0.778076 43.1728 0.778076H47.5927C48.2987 0.778076 48.8664 1.32839 48.9269 2.03273C48.9321 2.07946 48.9373 2.12617 48.946 2.1729C49.074 2.88071 49.723 3.37391 50.4429 3.37391H65.9784C66.6983 3.37391 67.3472 2.88071 67.4753 2.1729C67.484 2.12618 67.4892 2.07946 67.4943 2.03273C67.5549 1.32839 68.1225 0.778076 68.8286 0.778076H73.2484C77.3377 0.778076 80.6517 4.09209 80.6517 8.18138Z" fill="white"/>
<path d="M34.8188 20.9397C34.6279 20.9397 34.4727 21.0949 34.4727 21.2858V24.0547C34.4727 24.2456 34.6279 24.4008 34.8188 24.4008C35.0097 24.4008 35.1649 24.2456 35.1649 24.0547V21.2858C35.1649 21.0949 35.0097 20.9397 34.8188 20.9397Z" fill="#3F3D56"/>
<path d="M34.8188 29.2466C34.6279 29.2466 34.4727 29.4018 34.4727 29.5927V34.9574C34.4727 35.1483 34.6279 35.3035 34.8188 35.3035C35.0097 35.3035 35.1649 35.1483 35.1649 34.9574V29.5927C35.1649 29.4018 35.0097 29.2466 34.8188 29.2466Z" fill="#3F3D56"/>
<path d="M34.8188 36.8608C34.6279 36.8608 34.4727 37.0161 34.4727 37.207V42.5717C34.4727 42.7626 34.6279 42.9178 34.8188 42.9178C35.0097 42.9178 35.1649 42.7626 35.1649 42.5717V37.207C35.1649 37.0161 35.0097 36.8608 34.8188 36.8608Z" fill="#3F3D56"/>
<path d="M47.48 1.99023H40.8473C40.8151 1.99023 40.7891 2.01629 40.7891 2.04843V2.79731C40.7891 2.82945 40.8151 2.85551 40.8473 2.85551H47.48C47.5122 2.85551 47.5382 2.82945 47.5382 2.79731V2.04843C47.5382 2.01629 47.5122 1.99023 47.48 1.99023Z" fill="#E6E6E6"/>
<path d="M69.9227 2.85539C70.305 2.85539 70.6149 2.54547 70.6149 2.16317C70.6149 1.78087 70.305 1.47095 69.9227 1.47095C69.5404 1.47095 69.2305 1.78087 69.2305 2.16317C69.2305 2.54547 69.5404 2.85539 69.9227 2.85539Z" fill="#E6E6E6"/>
<path d="M71.827 2.85539C72.2093 2.85539 72.5192 2.54547 72.5192 2.16317C72.5192 1.78087 72.2093 1.47095 71.827 1.47095C71.4447 1.47095 71.1348 1.78087 71.1348 2.16317C71.1348 2.54547 71.4447 2.85539 71.827 2.85539Z" fill="#E6E6E6"/>
<path d="M73.7293 2.85539C74.1116 2.85539 74.4215 2.54547 74.4215 2.16317C74.4215 1.78087 74.1116 1.47095 73.7293 1.47095C73.347 1.47095 73.0371 1.78087 73.0371 2.16317C73.0371 2.54547 73.347 2.85539 73.7293 2.85539Z" fill="#E6E6E6"/>
<path d="M2.68555 95.8915C2.68555 96.0153 2.78499 96.1147 2.90882 96.1147H105.777C105.901 96.1147 106 96.0153 106 95.8915C106 95.7677 105.901 95.6682 105.777 95.6682H2.90882C2.78499 95.6682 2.68555 95.7677 2.68555 95.8915Z" fill="#CCCCCC"/>
<path d="M35.4861 94.425L33.3766 94.4248L32.373 86.2881L35.4865 86.2883L35.4861 94.425Z" fill="#FFB6B6"/>
<path d="M28.2585 94.3771C28.1929 94.4877 28.1582 94.8448 28.1582 94.9734C28.1582 95.3688 28.4787 95.6894 28.8742 95.6894H35.4071C35.6768 95.6894 35.8955 95.4707 35.8955 95.2009V94.929C35.8955 94.929 36.2187 94.1115 35.5533 93.1039C35.5533 93.1039 34.7264 93.8929 33.4907 92.6572L33.1263 91.9971L30.4886 93.9261L29.0266 94.1061C28.7067 94.1455 28.4231 94.1 28.2585 94.3771Z" fill="#2F2E41"/>
<path d="M23.8176 83.1236L21.7081 83.1167L20.7305 74.9768L23.8439 74.9869L23.8176 83.1236Z" fill="#FFB6B6"/>
<path d="M16.5905 83.0528C16.5245 83.1632 16.4887 83.5201 16.4883 83.6488C16.487 84.0442 16.8066 84.3658 17.202 84.367L23.7348 84.3878C24.0046 84.3886 24.224 84.1706 24.2248 83.9009L24.2257 83.6289C24.2257 83.6289 24.5515 82.8125 23.8893 81.8028C23.8893 81.8028 23.0598 82.5891 21.8281 81.3495L21.4658 80.6882L18.822 82.6089L17.3594 82.7843C17.0394 82.8226 16.7559 82.7762 16.5905 83.0528Z" fill="#2F2E41"/>
<path d="M32.4076 45.0278L29.781 45.2154C29.781 45.2154 20.8888 50.2712 20.1383 51.3969C19.3879 52.5226 18.356 54.1173 19.2941 55.8059C20.2321 57.4944 19.5182 77.9394 19.5182 77.9394L24.0008 76.9254L26.8729 55.5343L32.8766 54.69C32.8766 54.69 34.9404 59.1426 34.1899 62.8262C33.4395 66.5098 33.0642 68.7612 33.0642 68.7612L32.1262 90.5247L35.7847 90.4309L39.0679 70.2622L44.6964 54.3148L37.3794 45.6845L32.4076 45.0278Z" fill="#2F2E41"/>
<path d="M45.353 21.9512L39.9122 22.514L39.3493 24.3902L34.0961 27.2044L35.7846 39.0242L34.4713 41.088L35.0341 43.1518C35.0341 43.1518 33.5332 43.3394 33.7208 44.4651L30.3438 45.0279C30.3438 45.0279 34.8229 45.9424 35.7728 50.457C36.7227 54.9716 44.6026 55.5344 44.6026 55.5344L50.7939 36.21L51.3567 24.7654L47.0416 23.6397L45.353 21.9512Z" fill="#E6E6E6"/>
<path d="M42.4855 21.239C44.8214 21.239 46.7151 19.3453 46.7151 17.0094C46.7151 14.6734 44.8214 12.7798 42.4855 12.7798C40.1495 12.7798 38.2559 14.6734 38.2559 17.0094C38.2559 19.3453 40.1495 21.239 42.4855 21.239Z" fill="#FFB6B6"/>
<path d="M40.2872 20.8254C40.2872 20.8254 36.5349 20.6378 36.9101 17.6359C35.9814 14.4393 36.8034 12.3637 39.7244 11.6322C39.7244 11.6322 40.4748 11.4446 40.6624 11.4446C43.1301 11.4446 44.4148 12.195 44.4148 12.195C44.4148 12.195 44.2271 11.452 44.4148 11.6359C44.6024 11.8198 44.79 12.195 44.79 12.195C44.79 12.195 46.6661 13.1331 46.6661 15.0093C46.6661 16.8854 46.6661 16.135 46.6661 16.135C46.6661 16.135 46.2909 16.135 45.9157 15.0093C45.5405 13.8836 43.111 14.634 43.111 14.634L43.2891 15.0093L42.7262 14.8217L42.1634 15.3845L41.7881 15.1969C41.7881 15.1969 40.2872 15.1969 40.4748 15.1969C40.6624 15.1969 40.5317 16.4719 40.5317 16.4719L39.1615 18.0111L40.6624 20.8254H40.2872Z" fill="#2F2E41"/>
<path d="M20.2962 43.2179C19.228 43.8009 18.6628 44.8245 19.0338 45.5043C19.4048 46.184 20.5714 46.2625 21.6396 45.6795C22.1072 45.4243 22.4783 45.0847 22.7168 44.7264L27.212 42.1994L25.9812 40.1152L21.6805 42.8276C21.2502 42.8343 20.7637 42.9628 20.2962 43.2179Z" fill="#FFB6B6"/>
<path d="M35.4553 27.2917C35.4553 27.2917 33.6932 26.6208 33.0861 27.4284C32.479 28.236 28.4684 38.0353 28.4684 38.0353L22.584 41.1084L24.2387 43.99L31.816 41.4673L36.8154 32.3241L35.4553 27.2917Z" fill="#E6E6E6"/>
<path d="M91.0226 59.4739V79.3612C91.0226 81.1199 89.5918 82.5506 87.8331 82.5506H38.6778C36.919 82.5506 35.4883 81.1199 35.4883 79.3612V59.4739C35.4883 57.7152 36.919 56.2844 38.6778 56.2844H87.8331C89.5918 56.2844 91.0226 57.7152 91.0226 59.4739Z" fill="white"/>
<path d="M91.0226 59.4739V79.3612C91.0226 81.1199 89.5918 82.5506 87.8331 82.5506H38.6778C36.919 82.5506 35.4883 81.1199 35.4883 79.3612V59.4739C35.4883 57.7152 36.919 56.2844 38.6778 56.2844H87.8331C89.5918 56.2844 91.0226 57.7152 91.0226 59.4739ZM87.8331 82.1754C89.3873 82.1754 90.6473 80.9154 90.6473 79.3612V69.3348C90.6473 62.3345 84.9725 56.6596 77.9722 56.6596H38.6778C37.1235 56.6596 35.8635 57.9196 35.8635 59.4739V79.3612C35.8635 80.9154 37.1235 82.1754 38.6778 82.1754H87.8331Z" fill="#3F3D56"/>
<path d="M57.5537 68.2993H51.1334C50.9715 68.2993 50.8398 68.431 50.8398 68.5928C50.8398 68.7547 50.9715 68.8864 51.1334 68.8864H57.5537C57.7156 68.8864 57.8472 68.7547 57.8472 68.5928C57.8472 68.431 57.7156 68.2993 57.5537 68.2993Z" fill="#2795C6"/>
<path d="M67.3096 68.2993H60.8893C60.7274 68.2993 60.5957 68.431 60.5957 68.5928C60.5957 68.7547 60.7274 68.8864 60.8893 68.8864H67.3096C67.4715 68.8864 67.6031 68.7547 67.6031 68.5928C67.6031 68.431 67.4715 68.2993 67.3096 68.2993Z" fill="#2795C6"/>
<path d="M57.5537 71.509H51.1334C50.9715 71.509 50.8398 71.6407 50.8398 71.8025C50.8398 71.9644 50.9715 72.0961 51.1334 72.0961H57.5537C57.7156 72.0961 57.8472 71.9644 57.8472 71.8025C57.8472 71.6407 57.7156 71.509 57.5537 71.509Z" fill="#2795C6"/>
<path d="M67.3096 71.509H60.8893C60.7274 71.509 60.5957 71.6407 60.5957 71.8025C60.5957 71.9644 60.7274 72.0961 60.8893 72.0961H67.3096C67.4715 72.0961 67.6031 71.9644 67.6031 71.8025C67.6031 71.6407 67.4715 71.509 67.3096 71.509Z" fill="#2795C6"/>
<path d="M77.359 71.8025C77.359 71.6407 77.2273 71.509 77.0655 71.509H70.6451C70.4833 71.509 70.3516 71.6407 70.3516 71.8025C70.3516 71.9644 70.4833 72.0961 70.6451 72.0961H77.0655C77.2273 72.0961 77.359 71.9644 77.359 71.8025Z" fill="#2795C6"/>
<path d="M53.8018 65.737C53.9636 65.737 54.0953 65.6053 54.0953 65.4434C54.0953 65.2815 53.9636 65.1499 53.8018 65.1499H47.3815C47.2196 65.1499 47.0879 65.2815 47.0879 65.4434C47.0879 65.6053 47.2196 65.737 47.3815 65.737H53.8018Z" fill="#2795C6"/>
<path d="M72.7096 65.6176H79.1299C79.2918 65.6176 79.4234 65.4859 79.4234 65.324C79.4234 65.1622 79.2918 65.0305 79.1299 65.0305H72.7096C72.5477 65.0305 72.416 65.1622 72.416 65.324C72.416 65.4859 72.5477 65.6176 72.7096 65.6176Z" fill="#2795C6"/>
<path d="M56.5065 65.6794H69.8172C69.9791 65.6794 70.1107 65.5477 70.1107 65.3858C70.1107 65.2239 69.9791 65.0923 69.8172 65.0923H56.5065C56.3446 65.0923 56.2129 65.2239 56.2129 65.3858C56.2129 65.5477 56.3446 65.6794 56.5065 65.6794Z" fill="#2795C6"/>
<path d="M61.7432 74.4248H55.3229C55.161 74.4248 55.0293 74.5564 55.0293 74.7183C55.0293 74.8802 55.161 75.0119 55.3229 75.0119H61.7432C61.9051 75.0119 62.0367 74.8802 62.0367 74.7183C62.0367 74.5564 61.9051 74.4248 61.7432 74.4248Z" fill="#2795C6"/>
<path d="M82.4791 59.3237V79.211C82.4791 80.9697 81.0483 82.4005 79.2896 82.4005H59.4024C57.6436 82.4005 56.2129 80.9697 56.2129 79.211V59.3237C56.2129 57.565 57.6436 56.1343 59.4024 56.1343H79.2896C81.0483 56.1343 82.4791 57.565 82.4791 59.3237Z" fill="white"/>
<path d="M82.4791 59.3237V79.211C82.4791 80.9697 81.0483 82.4005 79.2896 82.4005H59.4024C57.6436 82.4005 56.2129 80.9697 56.2129 79.211V59.3237C56.2129 57.565 57.6436 56.1343 59.4024 56.1343H79.2896C81.0483 56.1343 82.4791 57.565 82.4791 59.3237ZM78.0559 82.0253C80.2915 82.0253 82.1039 80.2129 82.1039 77.9773V69.1847C82.1039 62.1844 76.429 56.5095 69.4287 56.5095H59.4024C57.8481 56.5095 56.5881 57.7695 56.5881 59.3237V76.4363C56.5881 79.523 59.0904 82.0253 62.1771 82.0253L78.0559 82.0253Z" fill="#3F3D56"/>
<path d="M71.9932 64.2565H65.5729C65.411 64.2565 65.2793 64.1248 65.2793 63.9629C65.2793 63.8011 65.411 63.6694 65.5729 63.6694H71.9932C72.155 63.6694 72.2867 63.8011 72.2867 63.9629C72.2867 64.1248 72.155 64.2565 71.9932 64.2565Z" fill="#2795C6"/>
<path d="M71.9932 70.516H65.5729C65.411 70.516 65.2793 70.3843 65.2793 70.2225C65.2793 70.0606 65.411 69.929 65.5729 69.929H71.9932C72.155 69.929 72.2867 70.0606 72.2867 70.2225C72.2867 70.3843 72.155 70.516 71.9932 70.516Z" fill="#2795C6"/>
<path d="M68.8037 79.1464H62.3834C62.2215 79.1464 62.0898 79.0147 62.0898 78.8528C62.0898 78.691 62.2215 78.5593 62.3834 78.5593H68.8037C68.9656 78.5593 69.0972 78.691 69.0972 78.8528C69.0972 79.0147 68.9656 79.1464 68.8037 79.1464Z" fill="#2795C6"/>
<path d="M75.4383 67.3883H62.1275C61.9657 67.3883 61.834 67.2566 61.834 67.0948C61.834 66.9329 61.9657 66.8013 62.1275 66.8013H75.4383C75.6002 66.8013 75.7318 66.9329 75.7318 67.0948C75.7318 67.2566 75.6002 67.3883 75.4383 67.3883Z" fill="#2795C6"/>
<path d="M78.7389 48.3036C78.7389 42.0996 73.4953 38.6868 67.5057 37.0704C59.8264 34.998 54.2022 39.1916 56.2725 48.3036C56.7417 50.3687 57.8639 52.7807 59.253 54.8439H70.2762C73.9583 52.4467 78.7389 53.119 78.7389 48.3036Z" fill="#2795C6"/>
<path d="M67.3411 60.0314C67.9681 58.836 68.7631 57.9736 69.639 57.3171H59.3145C61.9718 61.1129 65.4958 63.5491 67.3411 60.0314Z" fill="#2795C6"/>
<path d="M66.1488 41.6623C66.8116 41.6623 67.3489 42.1997 67.3489 42.8625V45.2628H64.9487V42.8625C64.9487 42.1997 65.486 41.6623 66.1488 41.6623ZM67.949 45.2627V42.8625C67.949 41.8682 67.143 41.0623 66.1488 41.0623C65.1546 41.0623 64.3486 41.8682 64.3486 42.8625V45.2627C63.6858 45.2627 63.1484 45.8001 63.1484 46.4629V49.4632C63.1484 50.1261 63.6858 50.6634 64.3486 50.6634H67.949C68.6118 50.6634 69.1491 50.1261 69.1491 49.4632V46.4629C69.1491 45.8001 68.6118 45.2627 67.949 45.2627ZM64.3486 45.8628H67.949C68.2804 45.8628 68.5491 46.1315 68.5491 46.4629V49.4632C68.5491 49.7946 68.2804 50.0633 67.949 50.0633H64.3486C64.0172 50.0633 63.7485 49.7946 63.7485 49.4632V46.4629C63.7485 46.1315 64.0172 45.8628 64.3486 45.8628Z" fill="white"/>
<path d="M48.9954 55.6362C48.8507 56.8445 49.3567 57.8986 50.1256 57.9907C50.8945 58.0828 51.6351 57.1779 51.7798 55.9697C51.8431 55.4408 51.7818 54.9414 51.6283 54.5394L52.1772 49.4119L49.7655 49.2056L49.4804 54.2821C49.2363 54.6366 49.0587 55.1073 48.9954 55.6362Z" fill="#FFB6B6"/>
<path d="M49.5748 25.0468C49.5748 25.0468 52.2014 24.2963 52.7643 25.422C53.3271 26.5477 54.6404 41.3694 54.6404 41.3694L52.1076 53.2003L49.1996 52.4387L50.7005 40.4313L48.6367 31.4257L49.5748 25.0468Z" fill="#E6E6E6"/>
<path d="M10.9755 61.0389C17.0371 61.0389 21.951 56.125 21.951 50.0634C21.951 44.0018 17.0371 39.0879 10.9755 39.0879C4.91391 39.0879 0 44.0018 0 50.0634C0 56.125 4.91391 61.0389 10.9755 61.0389Z" fill="#2795C6"/>
<path d="M10.9745 45.1499C11.7498 45.1499 12.3783 45.7785 12.3783 46.5538V49.3615H9.57062V46.5538C9.57062 45.7785 10.1991 45.1499 10.9745 45.1499ZM13.0802 49.3615V46.5538C13.0802 45.3908 12.1374 44.448 10.9745 44.448C9.81148 44.448 8.86869 45.3908 8.86869 46.5538V49.3615C8.09337 49.3615 7.46484 49.99 7.46484 50.7653V54.2749C7.46484 55.0502 8.09337 55.6788 8.86869 55.6788H13.0802C13.8556 55.6788 14.4841 55.0502 14.4841 54.2749V50.7653C14.4841 49.99 13.8556 49.3615 13.0802 49.3615ZM8.86869 50.0634H13.0802C13.4679 50.0634 13.7822 50.3776 13.7822 50.7653V54.2749C13.7822 54.6626 13.4679 54.9768 13.0802 54.9768H8.86869C8.48103 54.9768 8.16677 54.6626 8.16677 54.2749V50.7653C8.16677 50.3776 8.48103 50.0634 8.86869 50.0634Z" fill="white"/>
</g>
<defs>
<clipPath id="clip0_326_1284">
<rect width="106" height="96.1149" fill="white"/>
</clipPath>
</defs>
</svg>
