<svg width="109" height="109" viewBox="0 0 109 109" fill="none" xmlns="http://www.w3.org/2000/svg">
<rect x="0.351613" y="0.351613" width="108.297" height="108.297" rx="54.1484" stroke="black" stroke-width="0.703226"/>
<path d="M58.9541 73.7213L58.1035 74.5718L58.9541 75.42L59.8047 74.5718L58.9541 73.7213ZM39.7326 34.0769C39.414 34.0769 39.1084 34.2035 38.8831 34.4288C38.6578 34.6541 38.5312 34.9596 38.5312 35.2782C38.5312 35.5969 38.6578 35.9024 38.8831 36.1277C39.1084 36.353 39.414 36.4796 39.7326 36.4796V34.0769ZM46.0901 62.5584L58.1035 74.5718L59.8047 72.8707L47.7912 60.8573L46.0901 62.5584ZM59.8047 74.5718L71.8181 62.5584L70.117 60.8573L58.1035 72.8707L59.8047 74.5718ZM60.1554 73.7213V49.6944H57.7528V73.7213H60.1554ZM44.538 34.0769H39.7326V36.4796H44.538V34.0769ZM60.1554 49.6944C60.1554 45.5524 58.51 41.58 55.5812 38.6512C52.6523 35.7223 48.68 34.0769 44.538 34.0769V36.4796C48.0427 36.4796 51.404 37.8719 53.8822 40.3501C56.3605 42.8284 57.7528 46.1896 57.7528 49.6944H60.1554Z" fill="black"/>
</svg>
